<svg xmlns="http://www.w3.org/2000/svg" width="48" height="48" fill="none" aria-labelledby="blz-icon-title-starcraft" viewBox="0 1 48 48"><title id="blz-icon-title-starcraft">StarCraft</title><path fill="#CCE1FF" fill-rule="evenodd" d="M5.4 17.77h12.2l1.6 1.4h.4l4.4-4.8v-.2l-.2-.2h-16q-1.2 0-1.8.6c-.6.4-1 1-1 2.2v.6c0 .2.2.4.4.4m40.4-3.6H28.2l-3.2 3v.4h14.2l.8 1.2s.2.2.4 0l5.6-4c0-.2 0-.2-.2-.6M40 32.77c-.4 0-1 .2-1.4.2-4.2-.2-7.4-3.4-7.8-7.4v-1.6c0-1.4 0-2.8.4-4.2v-.2h-6.4s-.2 0-.2.2c-.6 1.6-.8 3.2-.8 5 0 1.4.2 2 .6 3.6 1.2 3.8 5.6 7.2 9.2 7.2 5.4 0 6.8-1.8 6.8-2.4-.2-.2-.2-.4-.4-.4M13.8 19.768H6.6c-.2 0-.2.2-.2.2v.2s9.4 11 9.6 11.2h-5.4c-.8 0-1.6-.2-2.2-.8-.2-.2-.4-.4-.6-.8h-.4l-5.4 5v.4h19.8c1.2 0 1.8-1.2 2-2.4 0-.4-.2-1-.4-1.2-.8-1-9.6-11.8-9.6-11.8" clip-rule="evenodd"/></svg>